<?xml version="1.0" encoding="utf-8"?>
<!-- Generator: Adobe Illustrator 22.1.0, SVG Export Plug-In . SVG Version: 6.00 Build 0)  -->
<svg version="1.1" id="layer_1" xmlns="http://www.w3.org/2000/svg"
	xmlns:xlink="http://www.w3.org/1999/xlink" x="0px" y="0px"
	viewBox="0 0 1400 1400" style="enable-background:new 0 0 1400 1400;" xml:space="preserve">
<style type="text/css">
	.st0{fill:transparent;}
	.st1{fill:#8AB0DF;}
	.st2{fill:#47678D;}
	.st3{fill:#C0E0FF;}
	.st4{fill:#021013;}
	.st5{fill:url(#SVGID_1_);}
	.st6{fill:url(#SVGID_2_);}
	.st7{fill:url(#SVGID_3_);}
	.st8{fill:url(#SVGID_4_);}
	.st9{fill:url(#SVGID_5_);}
	.st10{fill:#0F2B44;}
	.st11{fill:#0A1E2D;}
	.st12{fill:url(#SVGID_6_);}
	.st13{fill:url(#SVGID_7_);}
	.st14{fill:#FFCD03;}
	.st15{fill:#FFAC3E;}
	.st16{fill:url(#SVGID_8_);}
	.st17{fill:url(#SVGID_9_);}
	.st18{fill:#193F68;}
	.st19{fill:url(#SVGID_10_);}
	.st20{fill:url(#SVGID_11_);}
	.st21{fill:#BC5E11;}
	.st22{fill:url(#SVGID_12_);}
	.st23{fill:#175CA0;}
	.st24{fill:#94DBFF;}
	.st25{fill:#EDBB79;}
	.st26{fill:#D58E4F;}
	.st27{fill:url(#SVGID_13_);}
	.st28{fill:url(#SVGID_14_);}
	.st29{fill:#3677B2;}
	.st30{fill:#29ABE2;}
	.st31{fill:#FFFFFF;}
</style>
<g>
	<rect class="st0" width="1400" height="1400"/>
	<g>
		<path class="st1" d="M280.9,790.3C646.7,226.2,1025.2,364,1078.4,545c35.9,122.2-18.8,212-61.5,287.2
			c-42.7,75.2,84.6,54.7,105.1-47s223.1,0,30.8,270.9C890.1,1426.1-137.2,1435,280.9,790.3z"/>
		<path class="st2" d="M751.9,602.2c157.3-121.4,376.4-149.5,315.5,131.2v0c21.5-53.8,32.5-115.3,11-188.5
			c-53.1-181-431.6-318.8-797.4,245.3c-86.2,132.9-111,238.1-93.6,318c30.7-55.6,81-137.6,147.5-215.4
			c115.4-135,83.8,140.2,106,130.8C463,1014.2,594.6,723.6,751.9,602.2z"/>
		<path class="st1" d="M328.8,651.8c-12.8,28.2-49.6,17.1-32.5-17.1C313.4,600.5,341.6,623.6,328.8,651.8z"/>
		<path class="st1" d="M400.6,590.3c-7.7,28.2-33.3,19.7-28.2-1.7S408.3,562.1,400.6,590.3z"/>
		<path class="st1" d="M1129.5,628.8c-14.7-39.6-0.3-96.7,23.6-51S1139.9,656.9,1129.5,628.8z"/>
		<path class="st3" d="M604.9,1006.5c-264.2,123.3-361.5,203.4-239.6,275.4c132,44.2,314.6,34.7,476.5-18.9
			c43-17.4,89.1-37.2,138.2-60c61-33.8,114.2-75.1,154.3-123.2C1189.9,952.1,910.4,863.9,604.9,1006.5z"/>
		<path class="st2" d="M426.2,1281.7c0,0-19.7,6-39.3,24.8c-24.2,23.2-57.9-6.2-29.1-29.2C392.9,1249.2,426.2,1281.7,426.2,1281.7z"
			/>
		<path class="st2" d="M202.3,1272.1c0,0-15.9-3.2-32.7-16.4c-20.8-16.3-44.9,9.3-20.6,25.1C178.6,1300.1,202.3,1272.1,202.3,1272.1
			z"/>
		<path class="st1" d="M675.4,1067.8c0,0,201.3-52.7,254.3-71.5s-35,47.9-153.8,106.8s-146.2,68.4-176.1,82.9s70.9-16.2,99.1-24.8
			c28.2-8.5,6,8.5-116.2,54.7c-122.2,46.2-250.7,53.2-250.7,53.2s279.8-139.3,346.4-166.3S675.4,1067.8,675.4,1067.8"/>
		<polygon class="st4" points="932.1,759.1 857.4,746.2 924.9,718.1 919.3,686.2 848.8,686.2 913.1,650.8 901.7,586.3 848.8,586.3 
			897.2,560.8 889.7,517.8 848.8,517.8 886.2,498 851.3,299.3 831.7,306.4 847.1,275.6 845.7,267.8 826,272.2 842.6,250 
			821.7,130.8 794.1,288.4 811.7,303.6 792.5,297.5 788.6,320.3 803.1,340.7 785.7,336.7 766.8,444.9 811.7,466.4 820.2,497.8 
			761.9,473.1 747.1,557.7 794.5,580.6 744.2,574.3 733.9,632.7 794.5,697.7 728.4,664.6 698.9,833.3 793.1,933.3 855.9,933.3 
			941.6,813.3 		"/>
		<path class="st4" d="M797.4,968c0,0,20-597.6,20-629.4s8.6-46.5,8.6,0S823.1,968,823.1,968H797.4z"/>
		<linearGradient id="SVGID_1_" gradientUnits="userSpaceOnUse" x1="734.7223" y1="742.6814" x2="755.2337" y2="196.5643">
			<stop  offset="0" style="stop-color:#022E31"/>
			<stop  offset="1" style="stop-color:#001F21"/>
		</linearGradient>
		<polygon class="st5" points="855.7,719.9 773.7,705.8 847.8,674.9 841.6,640 764.3,640 834.8,601.1 822.3,530.3 764.3,530.3 
			817.4,502.3 809.1,455.1 764.3,455.1 805.3,433.4 767,215.4 745.5,223.2 762.4,189.3 760.9,180.8 739.2,185.6 757.5,161.2 
			734.5,30.5 704.3,203.4 723.5,220.1 702.5,213.4 698.1,238.4 714.1,260.8 695,256.4 674.3,375.1 723.5,398.7 732.9,433.2 
			668.8,406 652.6,498.9 704.7,524 649.4,517.1 638.2,581.3 704.7,652.5 632.1,616.2 599.7,801.4 703.2,911.1 772.1,911.1 
			866.1,779.4 		"/>
		<path class="st4" d="M707.9,949.2c0,0,21.9-655.8,21.9-690.7s9.4-51.1,9.4,0s-3.1,690.7-3.1,690.7H707.9z"/>
		<linearGradient id="SVGID_2_" gradientUnits="userSpaceOnUse" x1="584.1507" y1="835.5803" x2="600.224" y2="407.6275">
			<stop  offset="0" style="stop-color:#022E31"/>
			<stop  offset="1" style="stop-color:#001F21"/>
		</linearGradient>
		<polygon class="st6" points="678.9,817.8 614.7,806.7 672.7,782.5 667.9,755.1 607.3,755.1 662.6,724.6 652.8,669.2 607.3,669.2 
			649,647.2 642.4,610.2 607.3,610.2 639.5,593.2 609.4,422.4 592.6,428.5 605.8,401.9 604.7,395.2 587.7,399 602,379.9 584,277.5 
			560.3,413 575.4,426 558.9,420.8 555.5,440.4 568,458 553,454.5 536.8,547.5 575.4,566 582.7,593 532.5,571.8 519.8,644.6 
			560.6,664.2 517.3,658.8 508.5,709.1 560.6,764.9 503.7,736.5 478.4,881.6 559.4,967.5 613.4,967.5 687.1,864.4 		"/>
		<path class="st4" d="M563.1,1091.5c0,0,17.2-599.2,17.2-631.1s7.4-46.7,7.4,0s-2.5,631.1-2.5,631.1H563.1z"/>
		<linearGradient id="SVGID_3_" gradientUnits="userSpaceOnUse" x1="894.0717" y1="777.7463" x2="907.4974" y2="420.2878">
			<stop  offset="0" style="stop-color:#022E31"/>
			<stop  offset="1" style="stop-color:#001F21"/>
		</linearGradient>
		<polygon class="st7" points="973.2,762.9 919.6,753.6 968.1,733.4 964,710.5 913.4,710.5 959.6,685.1 951.4,638.7 913.4,638.7 
			948.2,620.4 942.8,589.5 913.4,589.5 940.3,575.3 915.2,432.6 901.1,437.7 912.2,415.5 911.2,409.9 897,413.1 909,397.1 
			893.9,311.6 874.1,424.7 886.7,435.7 873,431.3 870.1,447.7 880.6,462.3 868.1,459.4 854.5,537.2 886.7,552.6 892.9,575.1 
			851,557.4 840.3,618.2 874.4,634.6 838.2,630.1 830.9,672.1 874.4,718.7 826.9,695 805.7,816.2 873.4,888 918.5,888 980.1,801.8 
					"/>
		<path class="st4" d="M876.5,991.6c0,0,14.4-500.5,14.4-527.2c0-26.7,6.2-39,6.2,0s-2.1,527.2-2.1,527.2H876.5z"/>
		<g>
			<linearGradient id="SVGID_4_" gradientUnits="userSpaceOnUse" x1="222.4028" y1="1160.3583" x2="861.7972" y2="1160.3583">
				<stop  offset="0" style="stop-color:#B2360B"/>
				<stop  offset="1" style="stop-color:#DB490F"/>
			</linearGradient>
			<path class="st8" d="M222.4,1250.1c0,0,0.8,24.4,36.7,31.2c35.9,6.8,170.9-48.7,259-84.6s335-145.3,341-148.7c6-3.4,0-9.1,0-9.1
				s-75.5,35.6-127.5,49.7s-298.2,120.1-381.9,152.6C266,1273.6,222.4,1250.1,222.4,1250.1z"/>
			<linearGradient id="SVGID_5_" gradientUnits="userSpaceOnUse" x1="170.1101" y1="1144.4371" x2="819.8228" y2="1144.4371">
				<stop  offset="0" style="stop-color:#B2360B"/>
				<stop  offset="1" style="stop-color:#DB490F"/>
			</linearGradient>
			<path class="st9" d="M170.1,1215.4c0,0-0.5,24.4,35,33.2c35.5,8.8,173.3-39.3,263.2-70.3s342.5-126.8,348.6-129.8
				c6.2-3.1,0.5-9.1,0.5-9.1s-77.3,31.4-130,42.7c-52.7,11.2-304.3,103.6-389.7,131.4C212.3,1241.2,170.1,1215.4,170.1,1215.4z"/>
			<path class="st10" d="M694.2,878.7c0,0-53,53.8-64.1,77.8c-11.1,23.9-24.8,51.3-24.8,51.3s-7.7,0-12.8,7.7
				c-5.1,7.7-8.5,23.9-8.5,23.9s-10.3,11.1-16.2,19.7c-6,8.5-11.1,22.2-16.2,34.2c7.7,27.3,47,33.3,47,33.3s31.6-40.2,35.9-45.3
				c4.3-5.1,1-22.5,1-22.5l163.9-171.5L694.2,878.7z"/>
			<path class="st11" d="M407,973.6c0,0,6,145.3,6,149.6s4.3,6,4.3,0s0-144.4,0-144.4L407,973.6z"/>
			<linearGradient id="SVGID_6_" gradientUnits="userSpaceOnUse" x1="407.9435" y1="747.3706" x2="1006.2238" y2="901.2141">
				<stop  offset="0" style="stop-color:#E88D0A"/>
				<stop  offset="1" style="stop-color:#DB490F"/>
			</linearGradient>
			<path class="st12" d="M616.4,718.9c-19.7,6-35.9,12-65,53c-35.9,41-39.3,41-45.3,48.7c-6,7.7-6.8,15.4-6.8,15.4
				s-17.9,17.9-27.3,32.5c-9.4,14.5-12,23.9-12,23.9l30.8,37.6c0,0,17.1-9.4,40.2-25.6s26.5-25.6,26.5-25.6s4.3,0,25.6-15.4
				c21.4-15.4,39.3-30.8,39.3-30.8s53,37.6,71.8,46.2c53,1.7,105.1,8.5,105.1,8.5s47,24.8,74.4,70.9c12.8-3.4,35.9-21.4,44.4-33.3
				c8.5-12,6.8-37.6,6.8-37.6s7.7-16.2,10.3-27.3s-0.9-18.8-35-65.8s-61.5-70.9-61.5-70.9s-6.8-16.2-15.4-27.3
				c-8.5-11.1-71.8-13.7-71.8-13.7l-82.9,34.2L616.4,718.9z"/>
			<linearGradient id="SVGID_7_" gradientUnits="userSpaceOnUse" x1="949.6567" y1="956.7471" x2="759.9164" y2="799.4848">
				<stop  offset="0" style="stop-color:#B2360B"/>
				<stop  offset="1" style="stop-color:#DB490F"/>
			</linearGradient>
			<path class="st13" d="M748,797.5c7.4,3.3,51.3,29.1,51.3,29.1s53.8,39.3,70.1,44.4c7.7-13.7,17.1-18.8,23.9-22.2
				c6.8-3.4-12,10.3-17.1,28.2c-0.9,12-2.6,17.9-2.6,17.9s13.7,33.3,9.4,41.9s-47-12-47-12s19.7-14.5,25.6-23.1
				c6-8.5-16.2,10.3-43.6,2.6c-27.3-7.7-18.8-17.1-18.8-17.1s29.9,6.8,57.3-6C802.7,856.5,732.6,790.7,748,797.5z"/>
			<g>
				<path class="st14" d="M510.6,866c0.4,0.8,0.7,1.4,1.1,2C514.2,871.8,513.1,870.1,510.6,866z"/>
				<path class="st15" d="M500.6,848.4c3.1,6.2,7.3,13.3,10,17.6c-4.4-9.3-6-30.8,11.4-45.8c18.8-16.2,40.2-61.5,77.3-82
					c12.8-7.1,11.9-11.9,5.2-15.2c-15,5.9-30,16.4-53,49c-35.9,41-39.3,41-45.3,48.7c-6,7.7-6.8,15.4-6.8,15.4s-17.9,17.9-27.3,32.5
					c-9.4,14.5-12,23.9-12,23.9S483.5,857.8,500.6,848.4z"/>
			</g>
			<linearGradient id="SVGID_8_" gradientUnits="userSpaceOnUse" x1="526.7659" y1="858.6526" x2="689.5754" y2="872.7543">
				<stop  offset="0" style="stop-color:#BC5E11"/>
				<stop  offset="1" style="stop-color:#DB490F"/>
			</linearGradient>
			<path class="st16" d="M599.3,791.6c0.9,7.7,7.7,27.3,6.8,29.1c-0.9,1.7-45.3,42.7-51.3,39.3s-17.1-25.6-17.9-20.5
				s4.3,20.5,4.3,25.6s-1.7,8.5-17.9,24.8c-16.2,16.2-31.6,21-31.6,21s2,6.8-4.9,14.2l4.1,5c0,0,17.1-9.4,40.2-25.6
				s26.5-25.6,26.5-25.6s4.3,0,25.6-15.4c21.4-15.4,39.3-30.8,39.3-30.8s53,37.6,71.8,46.2c10.9,0.4,21.7,0.9,32,1.6
				c-27.8-28.3-50-11.9-81.6-36.6C613,818.9,598.5,783.9,599.3,791.6z"/>
			<linearGradient id="SVGID_9_" gradientUnits="userSpaceOnUse" x1="871.3032" y1="678.2938" x2="755.9264" y2="721.8806">
				<stop  offset="0" style="stop-color:#E88D0A"/>
				<stop  offset="1" style="stop-color:#DB490F"/>
			</linearGradient>
			<path class="st17" d="M705.4,733.5c-9.5,15.4-8.7,35.9-15.5,49.5s13.7-12,26.5-32.5c12.8-20.5,28.2-8.5,53.8-27.3
				c25.6-18.8,34.2-19.7,44.4-22.2c-3.4-7.7-3.4-7.7-58.5-18.8C704.8,704.4,705.4,733.5,705.4,733.5z"/>
			<path class="st18" d="M460,890c0,0,41.9,1.6,33.3,48.6c-14.5,12.8-23.1,13.7-23.1,13.7s-12,12.8-17.9,15.4
				c-6,2.6-11.1-2.6-11.1-2.6s-11.1,13.7-20.5,17.1c-9.4,3.4-13.7-3.4-13.7-3.4c-7.7,4.3-16.2-4.3-17.9-14.5
				c-1.7-10.3-6-21.4,13.7-35s29.1-4.3,29.1-4.3S443.8,905.5,460,890z"/>
			<linearGradient id="SVGID_10_" gradientUnits="userSpaceOnUse" x1="596.3163" y1="777.9564" x2="712.5536" y2="663.4285">
				<stop  offset="0" style="stop-color:#E88D0A"/>
				<stop  offset="1" style="stop-color:#FFAC3E"/>
			</linearGradient>
			<path class="st19" d="M682.2,621.5c0,0,49.6,5.1,58.1,10.3c8.5,5.1,8.5,14.5,8.5,14.5s10.3,7.7,9.4,28.2
				c-0.9,20.5-35.9,27.3-57.3,66.7c-21.4,39.3-50.1,35.8-67.5,38.5c-17.1,2.6-20.5-5.1-25.6-14.5s-1.7-26.5-5.1-40.2
				S682.2,621.5,682.2,621.5z"/>
			<linearGradient id="SVGID_11_" gradientUnits="userSpaceOnUse" x1="598.8181" y1="738.0368" x2="705.4256" y2="738.0368">
				<stop  offset="0" style="stop-color:#BC5E11"/>
				<stop  offset="1" style="stop-color:#DB490F"/>
			</linearGradient>
			<path class="st20" d="M598.8,741.7c17.2,28.9,36,44.3,64.2,16.1c35-19.7,42.4-54.4,42.4-54.4l-40.8,18.2L598.8,741.7z"/>
			<path class="st21" d="M680.4,733.5c0,0,32.6-39.3,42.8-51.3c10.3-12,7.7-14.5,9.4-34.2c0.9-6-6.8,12.8-12.8,22.2
				c-6,9.4-15.4,19.7-15.4,19.7s17.1-47,18.8-50.4s-20.5-4.3-35.9-7.7c-15.4-3.4-6.8,60.7-6.8,60.7L680.4,733.5z"/>
			<path class="st11" d="M694.6,662.9c13.7-10.3,1.7-22.2,7.7-35c-13.7,9.4-13.8,25.4-13.8,25.4L694.6,662.9z"/>
			<path class="st11" d="M683.5,651c29.9,15.4,14.5-17.9,42.7-27.3c-12.8,12,5.1,27.3-8.5,56.4c7.7-6.8,8.5-14.5,8.5-14.5
				c4.3,41-20.5,48.7-46.2,68.4c-25.6,19.7-33.3-23.9-33.3-23.9L683.5,651z"/>
			<linearGradient id="SVGID_12_" gradientUnits="userSpaceOnUse" x1="568.8425" y1="616.7872" x2="679.0914" y2="686.0132">
				<stop  offset="0" style="stop-color:#39B4FF"/>
				<stop  offset="1" style="stop-color:#2C88DB"/>
			</linearGradient>
			<path class="st22" d="M570.3,685.6c0,0-4.3-0.9-6-4.3c-1.7-3.4-6-35,8.5-59.8s68.5-51.2,103.4-13.7
				c45.3,48.7,6.8,118.8,5.1,123.9c-1.7,5.1-20.3,18.7-24.7,18.8c-4.4,0,4.7-6.2,6.6-14.2c1.9-8,2.3-29.3-1.8-40
				c-0.4-19.7-26.3-32.1-26.3-32.1L570.3,685.6z"/>
			<path class="st23" d="M662.6,653.9c-53.8-10.3-94.9,26.5-94.9,26.5l3.2,4.9l64.3-21.1c0,0,25.8,12.4,26.3,32.1
				c4.1,10.7,3.6,32,1.8,40s-11,14.2-6.6,14.2c0,0,0,0,0,0c1.8-0.7,22-9.8,19.5-56.4C672.8,673.6,664.3,653.9,662.6,653.9z"/>
			<path class="st24" d="M583.1,677.9h-12.7c0,0,6.7-7.7,14.4-14.5c-17.1-37.6,14.5-61.5,14.5-61.5s-39.7,13.5-36.5,71.7
				C566,731.7,583.1,677.9,583.1,677.9z"/>
			<path class="st25" d="M583.1,718.1c12.8,25.6,35,43.6,41.9,46.2c6.8,2.6,28.2-0.9,36.8-23.1c8.5-22.2-1.7-49.6-1.7-49.6
				l-37.6-6.8L583.1,718.1z"/>
			<path class="st26" d="M644.5,761.1c6.7-3.5,13.3-9.7,17.2-19.9c8.5-22.2-1.7-49.6-1.7-49.6l-37.6-6.8l-38.8,32.9l4.3,9
				c0.7,1.1,1.4,2.3,2.2,3.4c1.6-0.1,6.5-0.3,13.7,0c8.9,0.4,7.1-12.4,9.7-9.8c2.6,2.6,6.8,11.1,17.9,10.3
				c11.1-0.9,24.8-15.4,24.8-15.4S667.9,743,644.5,761.1z"/>
			<path class="st11" d="M567.7,680.4c0,0,5.1,29.1,6.8,34.2s11.1,7.7,19.7,8.5c8.5,0.9,9.4-1.7,12-8.5c2.6-6.8,3.4-7.7,11.1-2.6
				s16.2,11.1,29.1-0.9c12.8-12,20.5-18.8,18.8-23.9s-11.1-26.5-12.8-29.9C650.6,653.9,589.9,657.4,567.7,680.4z"/>
			<path class="st18" d="M799.3,887.3c0,0-90.6-0.9-99.1,0c-8.5,0.9-12.8,6-12.8,6s-12.8,0-27.3,9.4s-19.7,23.9-23.9,76.9
				s0.9,92.3,0,95.7c38.5,14.5,84.6-2.6,88-3.4s-7.7-29.1-7.7-29.1s4.3-6.8,3.4-12c-0.9-5.1-7.7-18.8-7.7-18.8s5.1-3.4,8.5-28.2
				c76.1,14.5,113.7,17.9,153-25.6C877.1,953.9,854.9,918,799.3,887.3z"/>
			<path class="st18" d="M630.1,956.5c-11.1,23.9-24.8,51.3-24.8,51.3s-7.7,0-12.8,7.7c-5.1,7.7-8.5,23.9-8.5,23.9
				s-10.3,11.1-16.2,19.7c-6,8.5-11.1,22.2-16.2,34.2c2.2,7.7,6.8,13.7,12.4,18.3h0c0,0-3.9-6.4-2.2-14.1c1.7-7.7,6-17.1,12-29.1
				c6-12,13.7-17.9,13.7-17.9s-0.9,13.7,10.3,20.5c3.4,3.4-6-6-3.4-25.6c2.6-19.7,5.1-23.9,15.4-25.6c-1.7,9.4,5.1,18.8,5.1,18.8
				s-1.7-22.2,4.3-33.3c6-11.1,14.5-40.2,23.1-45.3c2.2-1.3,2.9-4.5,2.8-8.6c96-28.6,155.7-36.2,154.5-64
				c-20.1-8.1-105.1-8.5-105.1-8.5S641.2,932.6,630.1,956.5z"/>
			<linearGradient id="SVGID_13_" gradientUnits="userSpaceOnUse" x1="722.2639" y1="1069.2828" x2="334.2364" y2="1235.0919">
				<stop  offset="0" style="stop-color:#E88D0A"/>
				<stop  offset="1" style="stop-color:#DB490F"/>
			</linearGradient>
			<path class="st27" d="M854,1039.4c-15.1,6.5-412.8,147-487.2,177.8s-124.8,33.3-139.3,30.8s0.9,25.6,59,20.5
				c58.1-5.1,559.8-217.9,567.5-221.4C861.7,1043.7,860,1036.8,854,1039.4z"/>
			<linearGradient id="SVGID_14_" gradientUnits="userSpaceOnUse" x1="698.8239" y1="1081.0251" x2="182.5935" y2="1233.1593">
				<stop  offset="0" style="stop-color:#E88D0A"/>
				<stop  offset="1" style="stop-color:#DB490F"/>
			</linearGradient>
			<path class="st28" d="M812.3,1039.6c-15.4,5.6-420.2,124.2-496.2,150.9s-126.4,26.5-140.8,23.1s-0.5,25.6,57.8,23.7
				c58.3-1.9,570.9-187,578.8-190C819.7,1044.2,818.4,1037.3,812.3,1039.6z"/>
			<path class="st11" d="M418.1,958.2c-9.8,5.2-25.6-3.4-11.1-15.4C421.5,930.9,432.6,950.5,418.1,958.2z"/>
			<path class="st29" d="M669,897.8c-2.8,1.2-5.9,2.8-9,4.8c-14.5,9.4-19.7,23.9-23.9,76.9s0.9,92.3,0,95.7
				c8.3,3.1,16.9,4.8,25.3,5.5c-5.4-4-14.2-11.2-14.2-16.6c0-7.7-3.4-64.1,0-90.6C650.6,947.1,648.1,910.9,669,897.8z"/>
			<path class="st10" d="M873.7,958.2c2.1-2.6-5.5-17.2-24.5-35.2c-5.7,7.3-23,24-59.2,20.6c-46.2-4.3-77.8-28.2-69.2-16.2
				c8.5,12,45.3,41,23.1,34.2c-22.2-6.8-52.1-25.6-61.5-33.3s0,21.4,12,34.2c12,12.8,26.5,21.4,26.5,21.4
				C796.7,998.4,834.4,1001.8,873.7,958.2z"/>
			<path class="st15" d="M662.6,765.1c-7.6,1.2-9.4,9.2,0,10.1C672,776.2,673.7,763.3,662.6,765.1z"/>
			<path class="st15" d="M616.4,765.1c-5.3-2.2-7.7,9.3,0,11.9C624.1,779.6,626.7,769.3,616.4,765.1z"/>
			<path class="st15" d="M654.8,840.5c-4.9-18.1-6.4-20.4-8.7-23.9c-1.2-1.9-2.6-4-5.1-9.8c-5-12-4.8-20-4.3-31.1
				c0.1-3.5,0.3-7,0.3-11.1l-5.1,0c0,4-0.1,7.5-0.3,10.9c-0.4,11.3-0.7,20.3,4.7,33.3c2.6,6.3,4.2,8.7,5.5,10.6
				c1.9,3,3.3,5.1,8.1,22.4c1.3,4.7,2.7,8.9,4.3,12.6c2.7,1.8,5.5,3.7,8.3,5.5C659.7,855,657,848.6,654.8,840.5z"/>
			<path class="st10" d="M491.6,910.9c0,0,2.6,8.9-8.5,17.5c-11.1,8.5-31.6,25.6-32.5,21.4c-0.9-4.3-9.4-12.8-9.4-12.8
				s0.9,5.1,0,12.8c-0.9,7.7-6.8,12.8-16.2,23.9c-9.4,11.1-17.9,5.1-17.9,5.1s4.3,6.8,13.7,3.4c9.4-3.4,20.5-17.1,20.5-17.1
				s5.1,5.1,11.1,2.6c6-2.6,17.9-15.4,17.9-15.4s8.5-0.9,23.1-13.7C495.5,926.6,494.4,917.6,491.6,910.9z"/>
			<path class="st11" d="M929.2,984.7c0,0,323.1-46.2,328.2-47s5.1,4.3,0,5.1s-328.2,53-328.2,53V984.7z"/>
			<path class="st18" d="M873.7,895c0,0,31.9-15.4,51.4,0c2.3,41.9-0.1,54.7-0.1,54.7s9.5,16.3,11.1,27.3c3.4,23.1-6,29.1-11.1,34.2
				s-11.1,2.6-11.1,2.6s-6,1.7-12,0.9c-8.5,2.6-15.4,0-15.4,0s-6,10.3-10.3,8.5s-13.7-8.5-14.5-26.5c-0.9-17.9,0.9-29,6.4-52.1
				S873.7,895,873.7,895z"/>
			<path class="st11" d="M883.1,995c1.8,10.1-11.1,17.1-13.7,5.1C866.8,988.1,879.7,975.3,883.1,995z"/>
			<path class="st11" d="M660.4,1071.5c0,0-20.5,2.6-23.9,3.4c-3.4,0.9-57.7,46.6-62.8,51.7c-5.1,5.1-15.4,12.8-19.7,15.4
				s3.4,22.2,28.2,18.8c24.8-3.4,147-58.1,148.7-62.4c1.7-4.3,0-29.9-0.9-35.9c-0.9-6-8.7-6-8.7-6L660.4,1071.5z"/>
			<path class="st15" d="M838.6,723.2c0,0-6.8-16.2-15.4-27.3c-6.9-9-49.8-12.4-65.8-13.4c8.1,2,52.9,13.4,56.8,18.1
				c4.3,5.1,14.5,53,14.5,64.1c0,11.1,7.7-25.6,7.7-25.6s81.2,102.6,86.3,115.4c5.1,12.8,0,32.5,0,32.5s0.8,0.3,2.1,0.6
				c0-0.1,0-0.2,0-0.2s7.7-16.2,10.3-27.3s-0.9-18.8-35-65.8S838.6,723.2,838.6,723.2z"/>
			<path class="st30" d="M576.1,684.6c0,0,4,21.1,5.7,24.5s12.8,6.8,14.5,5.1s7.5-13.5,12.8-14.5c8.5-1.7,17.9,9.4,25.6,8.5
				s19.7-17.1,20.5-18.8c0.9-1.7-7.7-23.1-9.4-23.9C644.2,664.6,608.3,664.6,576.1,684.6z"/>
			<g>
				<path class="st31" d="M605.4,671.4l-18,41.6c3.7,1.5,7.9,2.2,8.9,1.2c1.7-1.7,7.3-13.1,12.6-14.5l14.1-32.6
					C617.6,668.1,611.7,669.4,605.4,671.4z"/>
				<path class="st31" d="M627.5,666.4l-14.4,33.3c1.6,0.3,3.2,0.9,4.7,1.6l15.4-35.6C631.5,665.9,629.6,666.1,627.5,666.4z"/>
			</g>
		</g>
		<path class="st11" d="M551,1091.1c0,0-64,46-70,47.8c-6,1.8,5.9,15.4,18.7,11.2c10.3-3.4,92.9-28.9,106.7-33.7s0-17.9,0-17.9
			S572.4,1100.5,551,1091.1z"/>
	</g>
</g>
</svg>